<svg width="170" height="75" xmlns="http://www.w3.org/2000/svg">
 <!-- Created with Method Draw - http://github.com/duopixel/Method-Draw/ -->
 <g>
  <title>background</title>
  <rect fill="#e5e5e5" id="canvas_background" height="77" width="172" y="-1" x="-1"/>
  <g display="none" overflow="visible" y="0" x="0" height="100%" width="100%" id="canvasGrid">
   <rect fill="url(#gridpattern)" stroke-width="0" y="0" x="0" height="100%" width="100%"/>
  </g>
 </g>
 <g>
  <title>Layer 1</title>
  <text stroke="#000" transform="matrix(2.827305705341132,0,0,2.6748724943622393,-287.2348629167882,-230.63446527105344) " xml:space="preserve" text-anchor="start" font-family="Helvetica, Arial, sans-serif" font-size="24" id="svg_1" y="109.098557" x="103.507037" stroke-width="0" fill="#999999">AC</text>
  <path id="svg_6" d="m62.234346,47.330716l31.352585,0.01167l-1.017399,1.465971l-29.305776,-0.035009l-1.029412,-1.442632l0.000001,0zm0.215458,-19.500741l30.933637,-0.035009l0.897729,1.503863l-32.741079,0.01167l0.909712,-1.480523zm-3.052772,9.771559l37.015226,-0.035009l-0.047847,1.503864l-36.94344,-0.023339l-0.023939,-1.445515zm37.045867,0.139482c0,9.955931 -8.30909,18.055182 -18.52402,18.055182c-10.210517,0 -18.518059,-8.100715 -18.518059,-18.055182c0,-9.954515 8.309043,-18.053765 18.518059,-18.053765c10.214932,-0.001463 18.52402,8.09925 18.52402,18.053765zm-18.522566,-19.500743c-11.025577,0 -19.997746,8.747214 -19.997746,19.499276c0,10.753527 8.97217,19.50074 19.997746,19.50074c11.031581,0 20.002252,-8.747213 20.002252,-19.50074c0,-10.752062 -8.97067,-19.499276 -20.002252,-19.499276zm5.611929,19.500743c0,10.638741 -2.956467,18.055182 -5.611929,18.055182c-2.652457,0 -5.608877,-7.416441 -5.608877,-18.055182c0,-10.64167 2.954963,-18.053765 5.608877,-18.053765c2.653963,-0.001463 5.611929,7.412095 5.611929,18.053765zm-5.611929,-19.500743c-4.606002,0 -7.091567,10.047441 -7.091567,19.499276c0,9.454721 2.485565,19.50074 7.091567,19.50074c4.606049,0 7.096119,-10.04748 7.096119,-19.50074c-0.001501,-9.451835 -2.49007,-19.499276 -7.096119,-19.499276zm13.14311,19.500743c0,9.955931 -5.898014,18.055182 -13.14311,18.055182c-7.243591,0 -13.138604,-8.100715 -13.138604,-18.055182c0,-9.954515 5.895014,-18.053765 13.138604,-18.053765c7.245096,-0.001463 13.14311,8.09925 13.14311,18.053765zm-13.14311,-19.500743c-8.0602,0 -14.621293,8.747214 -14.621293,19.499276c0,10.753527 6.561094,19.50074 14.621293,19.50074c8.063203,0 14.62284,-8.747213 14.62284,-19.50074c0,-10.752062 -6.559638,-19.499276 -14.62284,-19.499276z" stroke-width="0" stroke="#000" fill="#999999"/>
  <ellipse id="svg_9" cy="277.4375" cx="260.5" stroke-width="0" stroke="#0f0f00" fill="#4c4c4c"/>
  <path id="svg_11" d="m136.937311,19.85636c-2.030512,-2.636643 2.06807,-7.098411 3.910531,-4.059113c1.572647,2.634263 -1.92305,5.9835 -3.910531,4.059113zm5.43708,6.000668c-1.659278,-2.902899 2.880943,-6.004408 4.317182,-3.104652c1.704803,3.032243 -2.902066,6.495276 -4.317182,3.104652zm6.189734,7.260308c-2.072965,-1.6685 -0.012863,-5.517191 2.133614,-5.17394c2.981581,0.541098 2.18472,6.448961 -0.723286,6.159333c-0.564501,-0.077845 -1.067428,-0.459001 -1.410328,-0.985393zm5.177492,6.410546c-1.733575,-2.62075 2.263975,-6.06279 3.944474,-3.567308c1.827852,2.775935 -2.251474,6.440037 -3.944474,3.567308zm-10.053926,0.143709c-1.927195,-2.169146 0.901611,-5.673988 3.029865,-4.759128c3.092365,1.176949 0.793291,6.835638 -1.966471,5.550076c-0.379636,-0.213821 -0.719603,-0.50795 -1.063394,-0.790948zm-8.197232,0c-2.265091,-2.515285 1.87355,-6.647229 3.812108,-4.016026c1.96683,2.742619 -1.724098,6.634057 -3.812108,4.016026zm-8.097065,-0.143709c-1.734645,-2.619984 2.265089,-6.063981 3.94391,-3.566288c1.822663,2.780352 -2.24529,6.437745 -3.94391,3.566288zm-7.711889,0.143709c-2.265089,-2.515285 1.873553,-6.647229 3.812113,-4.016026c1.966825,2.742619 -1.724102,6.634057 -3.812113,4.016026zm-8.096384,-0.141498c-1.98759,-3.092332 3.387913,-6.467064 4.284128,-2.587778c0.662601,2.596103 -2.925832,4.856775 -4.284128,2.587778zm36.650722,6.873712c-1.931376,-2.382711 1.50382,-6.545251 3.564923,-4.37653c2.545335,2.160473 -0.827279,7.166231 -3.164129,4.856013c-0.131797,-0.161894 -0.266849,-0.320053 -0.400794,-0.479484zm-5.861452,5.908543c-1.628113,-2.761315 2.603696,-5.79203 4.13235,-3.202552c1.994025,2.750689 -2.01096,6.498421 -3.855211,3.750449l-0.277139,-0.547897zm-5.242922,7.348351c-1.759016,-1.913336 0.657171,-4.926805 2.572001,-4.414265c2.914576,0.894035 1.077902,6.451852 -1.595412,5.39711c-0.414227,-0.16921 -0.750339,-0.545176 -0.976589,-0.982845z" stroke-opacity="null" stroke-width="0" stroke="#0f0f00" fill="#7f7f7f"/>
 </g>
</svg>